<svg viewBox="0 0 95.25 66.721" xmlns="http://www.w3.org/2000/svg"><path d="M93.14846 10.45435a11.97249 11.97249 0 0 0-8.43015-8.43016C77.32406 0 47.56847 0 47.56847 0s-29.7437.06549-37.13794 2.08372a11.97249 11.97249 0 0 0-8.43015 8.43016C-.2322 23.6473-1.09544 43.66297 2.0599 56.26653a11.97249 11.97249 0 0 0 8.43611 8.43015c7.3883 2.0242 37.13793 2.0242 37.13793 2.0242s29.74964 0 37.14389-2.0242a11.97249 11.97249 0 0 0 8.43016-8.43015c2.35758-13.15128 3.0839-33.14909-.05954-45.81218z" fill="#212121"/><path d="M47.63 10.84c-3.116 0-6.0502.58508-8.7906 1.7686-2.7407 1.1836-5.1238 2.7983-7.1512 4.8256-2.0274 2.0274-3.632 4.4108-4.814 7.1512-1.1813 2.7407-1.7664 5.6634-1.7664 8.7792 0 3.116.58504 6.0502 1.7664 8.7906 1.1836 2.7405 2.787 5.1236 4.814 7.1512 2.0274 2.0296 4.4105 3.6333 7.1512 4.814 2.7404 1.1814 5.6746 1.7686 8.7906 1.7686 3.1158 0 6.0385-.58508 8.7792-1.7686 2.7407-1.1836 5.1242-2.7868 7.1512-4.814 2.0274-2.0274 3.632-4.4107 4.814-7.1512 1.1813-2.7404 1.7798-5.6746 1.7798-8.7906 0-3.1158-.59628-6.0384-1.7798-8.7792-1.1814-2.7404-2.7866-5.124-4.814-7.1512-2.0274-2.0274-4.4105-3.6434-7.1512-4.8256C53.6685 11.425 50.7458 10.84 47.63 10.84zm0 5.6281c4.6924 0 8.6804 1.6449 11.965 4.9303 3.2848 3.2848 4.93 7.2725 4.93 11.965 0 4.6927-1.6448 8.6799-4.93 11.965-3.285 3.2847-7.2729 4.9303-11.965 4.9303-4.6929 0-8.6799-1.6448-11.965-4.9303-3.2848-3.2852-4.93-7.2724-4.93-11.965s1.6448-8.6804 4.93-11.965c3.2852-3.285 7.2722-4.9303 11.965-4.9303zm0 3.3838c-3.7543 0-6.9534 1.3141-9.5813 3.9418-2.6279 2.628-3.9418 5.8157-3.9418 9.5699 0 3.7541 1.3141 6.9419 3.9418 9.5696 2.628 2.628 5.827 3.942 9.5813 3.942 3.7542 0 6.9419-1.3141 9.5699-3.942 2.6277-2.6277 3.9418-5.8155 3.9418-9.5696 0-3.7542-1.3141-6.9419-3.9418-9.5699-2.628-2.6277-5.8157-3.9418-9.5699-3.9418z" fill="#FFF"/><path d="m55.51 28.85-7.8748 12.399-7.8928-12.395z" fill="red"/></svg>